<svg width="32" height="33" xmlns="http://www.w3.org/2000/svg"><path d="M15.984 32.61c8.83 0 15.985-7.155 15.985-15.985 0-8.83-7.155-15.984-15.985-15.984C7.154.64 0 7.795 0 16.625s7.154 15.984 15.984 15.984zM28.18 20.775H26.87c-.277 0-.541-.11-.734-.31l-2.063-2.1a.768.768 0 0 1 .007-1.077l.805-.806v-.56a.732.732 0 0 0-.212-.516l-.606-.606a.732.732 0 0 0-.516-.213H22.52a.732.732 0 0 1-.728-.728c0-.193.077-.38.212-.516l.606-.605a.732.732 0 0 1 .516-.213h2.062c.4 0 .729-.329.729-.729v-.605c0-.4-.33-.729-.729-.729h-2.365c-.567 0-1.031.464-1.031 1.032v.29c0 .444-.284.838-.703.98l-2.037.676a.513.513 0 0 0-.354.49v.142a.517.517 0 0 1-.516.515h-1.031a.517.517 0 0 1-.516-.515.517.517 0 0 0-.515-.516h-.2a.525.525 0 0 0-.464.284l-.606 1.205a1.026 1.026 0 0 1-.922.567h-1.424a1.034 1.034 0 0 1-1.031-1.031v-1.63c0-.272.11-.536.303-.73l1.295-1.295c.297-.296.464-.702.464-1.128 0-.219.142-.419.355-.49l2.578-.857a.75.75 0 0 0 .283-.174l1.728-1.727a.732.732 0 0 0-.516-1.244H16.63l-1.031 1.031v.516a.517.517 0 0 1-.516.516h-1.031a.517.517 0 0 1-.516-.516v-1.29c0-.16.077-.315.206-.412l1.863-1.398c.123-.007.245-.02.367-.02 7.122 0 12.904 5.782 12.904 12.891 0 1.45-.251 2.849-.696 4.15zM10.145 10.463H9.114a.732.732 0 0 1-.729-.728c0-.193.078-.38.213-.516l1.637-1.637a.732.732 0 0 1 1.244.516v1.031c0 .194-.077.38-.213.516l-.605.606a.732.732 0 0 1-.516.212zm6.49 19.02v-.457c0-.567-.464-1.031-1.031-1.031h-1.302c-.696 0-1.72-.342-2.282-.761l-1.43-1.076a2.928 2.928 0 0 1-1.173-2.346v-1.54c0-1.032.541-1.986 1.424-2.515l2.765-1.656c.458-.27.98-.419 1.508-.419h2.011c.703 0 1.38.251 1.908.703l2.784 2.39h1.18c.548 0 1.07.22 1.456.607l1.116 1.115c.219.219.522.341.83.341h.865a12.868 12.868 0 0 1-10.629 6.645z"/></svg>