<svg width="32" height="33" xmlns="http://www.w3.org/2000/svg"><path d="M21.688 10.438C20.754 4.682 18.55.64 15.984.64c-2.565 0-4.77 4.04-5.704 9.797h11.408zm9.037 0A16.018 16.018 0 0 0 20.54 1.31c1.573 2.179 2.656 5.46 3.223 9.127h6.96zm-22.52 0C8.765 6.77 9.848 3.49 11.42 1.31a16.007 16.007 0 0 0-10.177 9.127h6.96zM21.953 20.75a40.387 40.387 0 0 0 0-8.25H10.01a40.406 40.406 0 0 0-.213 4.125c0 1.43.077 2.804.213 4.125h11.943zm9.455 0c.354-1.321.554-2.694.554-4.125 0-1.43-.2-2.804-.548-4.125h-7.392c.135 1.354.212 2.74.212 4.125 0 1.386-.077 2.772-.212 4.125h7.386zm-23.467 0a43.643 43.643 0 0 1-.207-4.125c0-1.386.078-2.771.213-4.125H.554A16.127 16.127 0 0 0 0 16.625c0 1.43.206 2.804.554 4.125h7.387zm8.043 11.86c2.566 0 4.77-4.042 5.704-9.797H10.28c.935 5.755 3.14 9.796 5.704 9.796zm4.564-.671a16.033 16.033 0 0 0 10.183-9.126h-6.96c-.568 3.667-1.65 6.948-3.223 9.126zm-9.12 0c-1.573-2.178-2.656-5.46-3.223-9.126H1.244a16.018 16.018 0 0 0 10.183 9.126z"/></svg>